<svg width="50" height="50" viewBox="0 0 50 50" fill="none" xmlns="http://www.w3.org/2000/svg">
<rect width="50" height="50" rx="2" fill="#2D2D2D"/>
<path d="M36.0833 25.25C36.0833 26.2917 35.25 27.125 34.2083 27.125H26.7083V34.2083C26.7083 35.25 25.875 36.0833 24.8333 36.0833C23.7917 36.0833 22.9583 35.25 22.9583 34.2083V27.125H15.875C14.8333 27.125 14 26.2917 14 25.25C14 24.2083 14.8333 23.375 15.875 23.375H22.9583V15.875C22.9583 14.8333 23.7917 14 24.8333 14C25.875 14 26.7083 14.8333 26.7083 15.875V23.375H34.2083C35.25 23.375 36.0833 24.2083 36.0833 25.25Z" fill="#2777BC"/>
</svg>
