<svg width="52" height="32" viewBox="0 0 52 32" fill="none" xmlns="http://www.w3.org/2000/svg">
<rect width="52" height="32" rx="16" fill="#205F96"/>
<path fill-rule="evenodd" clip-rule="evenodd" d="M36 30C43.732 30 50 23.732 50 16C50 8.26801 43.732 2 36 2C28.268 2 22 8.26801 22 16C22 23.732 28.268 30 36 30Z" fill="white"/>
<path fill-rule="evenodd" clip-rule="evenodd" d="M39.0578 12.1439C39.5889 11.4431 40.6077 11.2907 41.3333 11.8037C42.059 12.3166 42.2167 13.3005 41.6856 14.0014L36.3059 21.1005C35.9435 21.5787 35.2445 21.6323 34.8134 21.215L30.4755 17.0154C29.8404 16.4006 29.8417 15.4049 30.4783 14.7916C31.1149 14.1782 32.1458 14.1794 32.7809 14.7942L35.2431 17.1779L39.0578 12.1439Z" fill="white"/>
<mask id="mask0" mask-type="alpha" maskUnits="userSpaceOnUse" x="30" y="11" width="12" height="11">
<path fill-rule="evenodd" clip-rule="evenodd" d="M39.0578 12.1439C39.5889 11.4431 40.6077 11.2907 41.3333 11.8037C42.059 12.3166 42.2167 13.3005 41.6856 14.0014L36.3059 21.1005C35.9435 21.5787 35.2445 21.6323 34.8134 21.215L30.4755 17.0154C29.8404 16.4006 29.8417 15.4049 30.4783 14.7916C31.1149 14.1782 32.1458 14.1794 32.7809 14.7942L35.2431 17.1779L39.0578 12.1439Z" fill="white"/>
</mask>
<g mask="url(#mask0)">
</g>
</svg>
