<svg width="50" height="50" viewBox="0 0 50 50" fill="none" xmlns="http://www.w3.org/2000/svg">
<rect width="50" height="50" fill="white"/>
<path d="M36.0523 25.2083C36.0523 26.25 35.219 27.0833 34.1773 27.0833H26.6773V34.1667C26.6773 35.2083 25.844 36.0417 24.8023 36.0417C23.7607 36.0417 22.9273 35.2083 22.9273 34.1667V27.0833H15.844C14.8023 27.0833 13.969 26.25 13.969 25.2083C13.969 24.1667 14.8023 23.3333 15.844 23.3333H22.9273V15.8333C22.9273 14.7917 23.7607 13.9583 24.8023 13.9583C25.844 13.9583 26.6773 14.7917 26.6773 15.8333V23.3333H34.1773C35.219 23.3333 36.0523 24.1667 36.0523 25.2083Z" fill="#7F7F7F"/>
</svg>
