<svg width="50" height="50" viewBox="0 0 50 50" fill="none" xmlns="http://www.w3.org/2000/svg">
<rect width="50" height="50" fill="white"/>
<rect width="50" height="50" fill="url(#paint0_linear)"/>
<path d="M33.8418 25.1667C33.8418 26 33.1752 26.6667 32.3418 26.6667H27.3418C26.7896 26.6667 26.3418 27.1144 26.3418 27.6667V32.3333C26.3418 33.1667 25.6752 33.8333 24.8418 33.8333C24.0085 33.8333 23.3418 33.1667 23.3418 32.3333V27.6667C23.3418 27.1144 22.8941 26.6667 22.3418 26.6667H17.6752C16.8418 26.6667 16.1752 26 16.1752 25.1667C16.1752 24.3333 16.8418 23.6667 17.6752 23.6667H22.3418C22.8941 23.6667 23.3418 23.219 23.3418 22.6667V17.6667C23.3418 16.8333 24.0085 16.1667 24.8418 16.1667C25.6752 16.1667 26.3418 16.8333 26.3418 17.6667V22.6667C26.3418 23.219 26.7896 23.6667 27.3418 23.6667H32.3418C33.1752 23.6667 33.8418 24.3333 33.8418 25.1667Z" fill="#2F2F2F"/>
<defs>
<linearGradient id="paint0_linear" x1="0" y1="25" x2="50" y2="25" gradientUnits="userSpaceOnUse">
<stop stop-color="white"/>
<stop offset="0.489421" stop-color="#F2EFEF"/>
<stop offset="1" stop-color="#DBDBDB"/>
</linearGradient>
</defs>
</svg>
